<?xml version="1.0" encoding="utf-8"?>
<!-- Generator: Adobe Illustrator 16.0.0, SVG Export Plug-In . SVG Version: 6.00 Build 0)  -->
<!DOCTYPE svg PUBLIC "-//W3C//DTD SVG 1.1//EN" "http://www.w3.org/Graphics/SVG/1.1/DTD/svg11.dtd">
<svg version="1.1" id="Layer_1" xmlns="http://www.w3.org/2000/svg" xmlns:xlink="http://www.w3.org/1999/xlink" x="0px" y="0px"
	 width="64px" height="64px" viewBox="0 0 64 64" enable-background="new 0 0 64 64" xml:space="preserve">
<g>
	<path fill="#D9D9D9" d="M45.544,5.875c9.663,0,15.197,5.206,15.197,14.87c0,6.032-1.846,10.163-8.287,17.394l-20.28,19.989
		L11.891,38.139C5.45,30.908,3.4,26.777,3.4,20.745c0-9.665,5.739-14.87,15.403-14.87c4.022,0,8.356,1.124,13.372,9.827
		C37.187,6.999,41.522,5.875,45.544,5.875 M45.544,2.875c-3.962,0-8.557,0.969-13.37,7.359c-4.815-6.39-9.41-7.359-13.371-7.359
		C7.279,2.875,0.4,9.556,0.4,20.745c0,6.816,2.248,11.527,9.251,19.389l0.065,0.073l0.069,0.068l20.283,19.989l2.106,2.075
		l2.106-2.075L54.56,40.275l0.07-0.068l0.064-0.073c6.764-7.593,9.047-12.485,9.047-19.389C63.741,9.556,56.938,2.875,45.544,2.875
		L45.544,2.875z"/>
</g>
</svg>
