<?xml version="1.0" encoding="utf-8"?>
<!-- Generator: Adobe Illustrator 16.0.0, SVG Export Plug-In . SVG Version: 6.00 Build 0)  -->
<!DOCTYPE svg PUBLIC "-//W3C//DTD SVG 1.1//EN" "http://www.w3.org/Graphics/SVG/1.1/DTD/svg11.dtd">
<svg version="1.1" id="Layer_1" xmlns="http://www.w3.org/2000/svg" xmlns:xlink="http://www.w3.org/1999/xlink" x="0px" y="0px"
	 width="64px" height="64px" viewBox="0 0 64 64" enable-background="new 0 0 64 64" xml:space="preserve">
<g>
	<path fill="#2D2D2D" d="M43.407,10.018c8.131,0,12.787,4.38,12.787,12.512c0,5.075-1.553,8.551-6.973,14.635L32.158,53.984
		L15.091,37.165c-5.42-6.084-7.145-9.56-7.145-14.635c0-8.132,4.829-12.512,12.96-12.512c3.384,0,7.031,0.946,11.251,8.269
		C36.375,10.964,40.024,10.018,43.407,10.018 M43.407,4.018c-4.378,0-8.022,1.405-11.25,4.433c-3.229-3.028-6.874-4.433-11.25-4.433
		c-11.518,0-18.96,7.267-18.96,18.512c0,7.481,3.045,12.318,8.665,18.626l0.129,0.146l0.139,0.137l17.067,16.819l4.212,4.151
		l4.211-4.151l17.063-16.819l0.139-0.137l0.13-0.146c6.27-7.038,8.492-11.913,8.492-18.626C62.194,11.111,54.995,4.018,43.407,4.018
		L43.407,4.018z"/>
</g>
</svg>
